<svg width="293" height="73" viewBox="0 0 293 73" fill="none" xmlns="http://www.w3.org/2000/svg">
<rect x="1.5" y="2.19238" width="290" height="69" rx="34.5" stroke="url(#paint0_linear_2_276)" stroke-width="3"/>
<path d="M63.7297 43.1109H69.8074V46.6924H59.09V27.6452H63.7297V43.1109ZM86.2923 38.8781C86.2923 39.3123 86.2651 39.7645 86.2109 40.2348H75.7105C75.7828 41.1754 76.0813 41.8989 76.6059 42.4054C77.1485 42.8938 77.8088 43.138 78.5866 43.138C79.7442 43.138 80.5492 42.6496 81.0014 41.6728H85.9396C85.6863 42.6677 85.2251 43.5631 84.5558 44.359C83.9046 45.1549 83.0816 45.7789 82.0867 46.2311C81.0918 46.6833 79.9794 46.9094 78.7494 46.9094C77.2661 46.9094 75.9456 46.5929 74.788 45.9598C73.6303 45.3267 72.7259 44.4223 72.0747 43.2465C71.4235 42.0708 71.0979 40.696 71.0979 39.1223C71.0979 37.5486 71.4145 36.1739 72.0476 34.9981C72.6987 33.8224 73.6032 32.918 74.7608 32.2849C75.9185 31.6518 77.248 31.3352 78.7494 31.3352C80.2145 31.3352 81.5169 31.6427 82.6565 32.2577C83.7961 32.8727 84.6824 33.75 85.3155 34.8896C85.9667 36.0292 86.2923 37.3587 86.2923 38.8781ZM81.544 37.6572C81.544 36.8613 81.2727 36.2282 80.7301 35.7579C80.1874 35.2876 79.5091 35.0524 78.6951 35.0524C77.9173 35.0524 77.2571 35.2785 76.7144 35.7307C76.1898 36.1829 75.8642 36.8251 75.7376 37.6572H81.544ZM87.8174 39.0952C87.8174 37.5396 88.1069 36.1739 88.6857 34.9981C89.2826 33.8224 90.0875 32.918 91.1005 32.2849C92.1135 31.6518 93.244 31.3352 94.4921 31.3352C95.5593 31.3352 96.4909 31.5523 97.2868 31.9864C98.1008 32.4205 98.7248 32.9903 99.1589 33.6958V31.5523H103.799V46.6924H99.1589V44.5489C98.7067 45.2543 98.0736 45.8241 97.2596 46.2583C96.4638 46.6924 95.5322 46.9094 94.465 46.9094C93.2349 46.9094 92.1135 46.5929 91.1005 45.9598C90.0875 45.3086 89.2826 44.3951 88.6857 43.2194C88.1069 42.0255 87.8174 40.6508 87.8174 39.0952ZM99.1589 39.1223C99.1589 37.9647 98.8333 37.0512 98.1822 36.3819C97.5491 35.7126 96.7713 35.378 95.8487 35.378C94.9262 35.378 94.1394 35.7126 93.4882 36.3819C92.8551 37.0331 92.5385 37.9375 92.5385 39.0952C92.5385 40.2529 92.8551 41.1754 93.4882 41.8627C94.1394 42.532 94.9262 42.8667 95.8487 42.8667C96.7713 42.8667 97.5491 42.532 98.1822 41.8627C98.8333 41.1935 99.1589 40.28 99.1589 39.1223ZM111.795 34.0756C112.338 33.2436 113.016 32.5924 113.83 32.1221C114.644 31.6337 115.548 31.3895 116.543 31.3895V36.3005H115.268C114.11 36.3005 113.242 36.5538 112.663 37.0602C112.084 37.5486 111.795 38.4169 111.795 39.665V46.6924H107.155V31.5523H111.795V34.0756ZM127.986 31.3895C129.759 31.3895 131.17 31.9683 132.219 33.126C133.286 34.2656 133.82 35.8393 133.82 37.8471V46.6924H129.207V38.4711C129.207 37.4582 128.945 36.6713 128.42 36.1106C127.896 35.5498 127.19 35.2695 126.304 35.2695C125.417 35.2695 124.712 35.5498 124.187 36.1106C123.663 36.6713 123.401 37.4582 123.401 38.4711V46.6924H118.761V31.5523H123.401V33.5601C123.871 32.8908 124.504 32.3663 125.3 31.9864C126.096 31.5885 126.991 31.3895 127.986 31.3895ZM164.364 27.6452V46.6924H159.724V35.2695L155.465 46.6924H151.72L147.433 35.2423V46.6924H142.794V27.6452H148.274L153.62 40.8317L158.91 27.6452H164.364ZM174.592 46.9094C173.109 46.9094 171.771 46.5929 170.577 45.9598C169.401 45.3267 168.469 44.4223 167.782 43.2465C167.113 42.0708 166.778 40.696 166.778 39.1223C166.778 37.5667 167.122 36.201 167.809 35.0253C168.497 33.8314 169.437 32.918 170.631 32.2849C171.825 31.6518 173.163 31.3352 174.647 31.3352C176.13 31.3352 177.468 31.6518 178.662 32.2849C179.856 32.918 180.797 33.8314 181.484 35.0253C182.171 36.201 182.515 37.5667 182.515 39.1223C182.515 40.6779 182.162 42.0527 181.457 43.2465C180.77 44.4223 179.82 45.3267 178.608 45.9598C177.414 46.5929 176.076 46.9094 174.592 46.9094ZM174.592 42.8938C175.479 42.8938 176.229 42.5682 176.844 41.917C177.477 41.2658 177.794 40.3343 177.794 39.1223C177.794 37.9104 177.487 36.9788 176.871 36.3277C176.275 35.6765 175.533 35.3509 174.647 35.3509C173.742 35.3509 172.992 35.6765 172.395 36.3277C171.798 36.9608 171.499 37.8923 171.499 39.1223C171.499 40.3343 171.789 41.2658 172.367 41.917C172.964 42.5682 173.706 42.8938 174.592 42.8938ZM189.616 34.0756C190.159 33.2436 190.837 32.5924 191.651 32.1221C192.465 31.6337 193.37 31.3895 194.365 31.3895V36.3005H193.089C191.932 36.3005 191.063 36.5538 190.485 37.0602C189.906 37.5486 189.616 38.4169 189.616 39.665V46.6924H184.977V31.5523H189.616V34.0756ZM210.854 38.8781C210.854 39.3123 210.827 39.7645 210.773 40.2348H200.272C200.345 41.1754 200.643 41.8989 201.168 42.4054C201.71 42.8938 202.371 43.138 203.148 43.138C204.306 43.138 205.111 42.6496 205.563 41.6728H210.501C210.248 42.6677 209.787 43.5631 209.118 44.359C208.466 45.1549 207.643 45.7789 206.648 46.2311C205.654 46.6833 204.541 46.9094 203.311 46.9094C201.828 46.9094 200.507 46.5929 199.35 45.9598C198.192 45.3267 197.288 44.4223 196.636 43.2465C195.985 42.0708 195.66 40.696 195.66 39.1223C195.66 37.5486 195.976 36.1739 196.609 34.9981C197.261 33.8224 198.165 32.918 199.323 32.2849C200.48 31.6518 201.81 31.3352 203.311 31.3352C204.776 31.3352 206.079 31.6427 207.218 32.2577C208.358 32.8727 209.244 33.75 209.877 34.8896C210.528 36.0292 210.854 37.3587 210.854 38.8781ZM206.106 37.6572C206.106 36.8613 205.834 36.2282 205.292 35.7579C204.749 35.2876 204.071 35.0524 203.257 35.0524C202.479 35.0524 201.819 35.2785 201.276 35.7307C200.752 36.1829 200.426 36.8251 200.299 37.6572H206.106ZM215.472 46.9094C214.658 46.9094 213.989 46.6743 213.465 46.204C212.958 45.7156 212.705 45.1187 212.705 44.4132C212.705 43.6897 212.958 43.0837 213.465 42.5953C213.989 42.1069 214.658 41.8627 215.472 41.8627C216.268 41.8627 216.919 42.1069 217.426 42.5953C217.95 43.0837 218.213 43.6897 218.213 44.4132C218.213 45.1187 217.95 45.7156 217.426 46.204C216.919 46.6743 216.268 46.9094 215.472 46.9094ZM223.13 46.9094C222.316 46.9094 221.647 46.6743 221.122 46.204C220.616 45.7156 220.362 45.1187 220.362 44.4132C220.362 43.6897 220.616 43.0837 221.122 42.5953C221.647 42.1069 222.316 41.8627 223.13 41.8627C223.926 41.8627 224.577 42.1069 225.083 42.5953C225.608 43.0837 225.87 43.6897 225.87 44.4132C225.87 45.1187 225.608 45.7156 225.083 46.204C224.577 46.6743 223.926 46.9094 223.13 46.9094ZM230.788 46.9094C229.974 46.9094 229.304 46.6743 228.78 46.204C228.273 45.7156 228.02 45.1187 228.02 44.4132C228.02 43.6897 228.273 43.0837 228.78 42.5953C229.304 42.1069 229.974 41.8627 230.788 41.8627C231.583 41.8627 232.235 42.1069 232.741 42.5953C233.266 43.0837 233.528 43.6897 233.528 44.4132C233.528 45.1187 233.266 45.7156 232.741 46.204C232.235 46.6743 231.583 46.9094 230.788 46.9094Z" fill="white"/>
<defs>
<linearGradient id="paint0_linear_2_276" x1="0" y1="72.6924" x2="293" y2="72.6924" gradientUnits="userSpaceOnUse">
<stop stop-color="#00F0FF"/>
<stop offset="0.46875" stop-color="#5773FF"/>
<stop offset="1" stop-color="#FF007A"/>
</linearGradient>
</defs>
</svg>
