<svg width="293" height="72" viewBox="0 0 293 72" fill="none" xmlns="http://www.w3.org/2000/svg">
<rect x="1.5" y="1.5" width="290" height="69" rx="34.5" stroke="url(#paint0_linear_2_10)" stroke-width="3"/>
<path d="M61.4342 42.4185H67.5119V46H56.7945V26.9528H61.4342V42.4185ZM83.9968 38.1858C83.9968 38.6199 83.9697 39.0721 83.9154 39.5424H73.415C73.4874 40.483 73.7858 41.2065 74.3104 41.713C74.8531 42.2014 75.5133 42.4456 76.2911 42.4456C77.4488 42.4456 78.2537 41.9572 78.7059 40.9804H83.6441C83.3908 41.9753 82.9296 42.8707 82.2603 43.6666C81.6091 44.4625 80.7861 45.0865 79.7912 45.5387C78.7964 45.991 77.6839 46.2171 76.4539 46.2171C74.9706 46.2171 73.6502 45.9005 72.4925 45.2674C71.3348 44.6343 70.4304 43.7299 69.7792 42.5541C69.128 41.3784 68.8024 40.0037 68.8024 38.43C68.8024 36.8562 69.119 35.4815 69.7521 34.3058C70.4033 33.13 71.3077 32.2256 72.4654 31.5925C73.623 30.9594 74.9525 30.6428 76.4539 30.6428C77.9191 30.6428 79.2214 30.9503 80.361 31.5654C81.5006 32.1804 82.3869 33.0577 83.02 34.1972C83.6712 35.3368 83.9968 36.6663 83.9968 38.1858ZM79.2486 36.9648C79.2486 36.1689 78.9772 35.5358 78.4346 35.0655C77.8919 34.5952 77.2136 34.36 76.3996 34.36C75.6218 34.36 74.9616 34.5861 74.4189 35.0384C73.8944 35.4906 73.5688 36.1327 73.4422 36.9648H79.2486ZM94.8828 42.0657V46H92.5222C90.84 46 89.5286 45.593 88.588 44.779C87.6474 43.947 87.1771 42.5994 87.1771 40.7362V34.7128H85.332V30.8599H87.1771V27.1698H91.8168V30.8599H94.8556V34.7128H91.8168V40.7905C91.8168 41.2427 91.9253 41.5683 92.1424 41.7673C92.3594 41.9663 92.7212 42.0657 93.2277 42.0657H94.8828ZM98.5254 26.9528H103.274L100.235 34.2244H97.1145L98.5254 26.9528ZM112.158 46.2171C110.838 46.2171 109.662 45.991 108.631 45.5387C107.6 45.0865 106.786 44.4715 106.189 43.6937C105.592 42.8978 105.258 42.0115 105.185 41.0347H109.771C109.825 41.5593 110.069 41.9843 110.503 42.3099C110.937 42.6355 111.471 42.7983 112.104 42.7983C112.683 42.7983 113.126 42.6898 113.434 42.4727C113.759 42.2376 113.922 41.9391 113.922 41.5774C113.922 41.1432 113.696 40.8267 113.244 40.6277C112.791 40.4106 112.059 40.1755 111.046 39.9223C109.961 39.669 109.056 39.4067 108.333 39.1354C107.609 38.846 106.985 38.4028 106.46 37.8059C105.936 37.1909 105.674 36.3679 105.674 35.3368C105.674 34.4686 105.909 33.6817 106.379 32.9763C106.867 32.2527 107.573 31.6829 108.495 31.2669C109.436 30.8509 110.548 30.6428 111.833 30.6428C113.732 30.6428 115.224 31.1131 116.31 32.0537C117.413 32.9943 118.046 34.2425 118.209 35.7981H113.922C113.85 35.2735 113.614 34.8575 113.216 34.55C112.837 34.2425 112.33 34.0887 111.697 34.0887C111.154 34.0887 110.738 34.1972 110.449 34.4143C110.16 34.6133 110.015 34.8936 110.015 35.2554C110.015 35.6895 110.241 36.0151 110.693 36.2322C111.163 36.4493 111.887 36.6663 112.864 36.8834C113.985 37.1728 114.899 37.4622 115.604 37.7516C116.31 38.023 116.925 38.4752 117.449 39.1083C117.992 39.7233 118.272 40.5554 118.29 41.6045C118.29 42.4908 118.037 43.2867 117.531 43.9922C117.042 44.6795 116.328 45.2222 115.387 45.6201C114.465 46.0181 113.388 46.2171 112.158 46.2171ZM132.631 30.6428C133.698 30.6428 134.63 30.8599 135.426 31.294C136.24 31.7282 136.864 32.2979 137.298 33.0034V30.8599H141.937V45.9729C141.937 47.3657 141.657 48.6228 141.096 49.7443C140.554 50.8839 139.713 51.7883 138.573 52.4576C137.451 53.1269 136.05 53.4615 134.367 53.4615C132.124 53.4615 130.306 52.9279 128.914 51.8607C127.521 50.8115 126.725 49.3826 126.526 47.5737H131.111C131.256 48.1525 131.6 48.6047 132.142 48.9303C132.685 49.274 133.354 49.4459 134.15 49.4459C135.109 49.4459 135.869 49.1655 136.429 48.6047C137.008 48.0621 137.298 47.1848 137.298 45.9729V43.8294C136.845 44.5348 136.221 45.1137 135.426 45.5659C134.63 46 133.698 46.2171 132.631 46.2171C131.383 46.2171 130.252 45.9005 129.239 45.2674C128.226 44.6162 127.421 43.7028 126.824 42.527C126.246 41.3332 125.956 39.9584 125.956 38.4028C125.956 36.8472 126.246 35.4815 126.824 34.3058C127.421 33.13 128.226 32.2256 129.239 31.5925C130.252 30.9594 131.383 30.6428 132.631 30.6428ZM137.298 38.43C137.298 37.2723 136.972 36.3588 136.321 35.6895C135.688 35.0203 134.91 34.6856 133.987 34.6856C133.065 34.6856 132.278 35.0203 131.627 35.6895C130.994 36.3407 130.677 37.2452 130.677 38.4028C130.677 39.5605 130.994 40.483 131.627 41.1704C132.278 41.8396 133.065 42.1743 133.987 42.1743C134.91 42.1743 135.688 41.8396 136.321 41.1704C136.972 40.5011 137.298 39.5876 137.298 38.43ZM152.186 46.2171C150.702 46.2171 149.364 45.9005 148.17 45.2674C146.994 44.6343 146.063 43.7299 145.375 42.5541C144.706 41.3784 144.372 40.0037 144.372 38.43C144.372 36.8743 144.715 35.5087 145.403 34.3329C146.09 33.1391 147.031 32.2256 148.224 31.5925C149.418 30.9594 150.757 30.6428 152.24 30.6428C153.723 30.6428 155.062 30.9594 156.256 31.5925C157.45 32.2256 158.39 33.1391 159.077 34.3329C159.765 35.5087 160.109 36.8743 160.109 38.43C160.109 39.9856 159.756 41.3603 159.05 42.5541C158.363 43.7299 157.413 44.6343 156.201 45.2674C155.008 45.9005 153.669 46.2171 152.186 46.2171ZM152.186 42.2014C153.072 42.2014 153.823 41.8758 154.438 41.2246C155.071 40.5734 155.387 39.6419 155.387 38.43C155.387 37.218 155.08 36.2865 154.465 35.6353C153.868 34.9841 153.126 34.6585 152.24 34.6585C151.336 34.6585 150.585 34.9841 149.988 35.6353C149.391 36.2684 149.093 37.1999 149.093 38.43C149.093 39.6419 149.382 40.5734 149.961 41.2246C150.558 41.8758 151.299 42.2014 152.186 42.2014Z" fill="white"/>
<path d="M239.061 38.0607C239.646 37.4749 239.646 36.5251 239.061 35.9393L229.515 26.3934C228.929 25.8076 227.979 25.8076 227.393 26.3934C226.808 26.9792 226.808 27.9289 227.393 28.5147L235.879 37L227.393 45.4853C226.808 46.0711 226.808 47.0208 227.393 47.6066C227.979 48.1924 228.929 48.1924 229.515 47.6066L239.061 38.0607ZM178 38.5H238V35.5H178V38.5Z" fill="url(#paint1_linear_2_10)"/>
<defs>
<linearGradient id="paint0_linear_2_10" x1="0" y1="72" x2="293" y2="72" gradientUnits="userSpaceOnUse">
<stop stop-color="#00F0FF"/>
<stop offset="0.46875" stop-color="#5773FF"/>
<stop offset="1" stop-color="#FF007A"/>
</linearGradient>
<linearGradient id="paint1_linear_2_10" x1="178" y1="38" x2="238" y2="38" gradientUnits="userSpaceOnUse">
<stop stop-color="#00F0FF"/>
<stop offset="0.46875" stop-color="#5773FF"/>
<stop offset="1" stop-color="#FF007A"/>
</linearGradient>
</defs>
</svg>
