<svg width="130" height="42" viewBox="0 0 130 42" fill="none" xmlns="http://www.w3.org/2000/svg">
<rect x="1" y="1" width="128" height="40" rx="20" stroke="url(#paint0_linear_2_94)" stroke-width="2"/>
<path d="M31.4 28L28.48 22.7H27.66V28H24.24V13.96H29.98C31.0867 13.96 32.0267 14.1533 32.8 14.54C33.5867 14.9267 34.1733 15.46 34.56 16.14C34.9467 16.8067 35.14 17.5533 35.14 18.38C35.14 19.3133 34.8733 20.1467 34.34 20.88C33.82 21.6133 33.0467 22.1333 32.02 22.44L35.26 28H31.4ZM27.66 20.28H29.78C30.4067 20.28 30.8733 20.1267 31.18 19.82C31.5 19.5133 31.66 19.08 31.66 18.52C31.66 17.9867 31.5 17.5667 31.18 17.26C30.8733 16.9533 30.4067 16.8 29.78 16.8H27.66V20.28ZM47.8069 22.24C47.8069 22.56 47.7869 22.8933 47.7469 23.24H40.0069C40.0602 23.9333 40.2802 24.4667 40.6669 24.84C41.0669 25.2 41.5535 25.38 42.1269 25.38C42.9802 25.38 43.5735 25.02 43.9069 24.3H47.5469C47.3602 25.0333 47.0202 25.6933 46.5269 26.28C46.0469 26.8667 45.4402 27.3267 44.7069 27.66C43.9735 27.9933 43.1535 28.16 42.2469 28.16C41.1535 28.16 40.1802 27.9267 39.3269 27.46C38.4735 26.9933 37.8069 26.3267 37.3269 25.46C36.8469 24.5933 36.6069 23.58 36.6069 22.42C36.6069 21.26 36.8402 20.2467 37.3069 19.38C37.7869 18.5133 38.4535 17.8467 39.3069 17.38C40.1602 16.9133 41.1402 16.68 42.2469 16.68C43.3269 16.68 44.2869 16.9067 45.1269 17.36C45.9669 17.8133 46.6202 18.46 47.0869 19.3C47.5669 20.14 47.8069 21.12 47.8069 22.24ZM44.3069 21.34C44.3069 20.7533 44.1069 20.2867 43.7069 19.94C43.3069 19.5933 42.8069 19.42 42.2069 19.42C41.6335 19.42 41.1469 19.5867 40.7469 19.92C40.3602 20.2533 40.1202 20.7267 40.0269 21.34H44.3069ZM53.8511 16.68C54.6378 16.68 55.3244 16.84 55.9111 17.16C56.5111 17.48 56.9711 17.9 57.2911 18.42V16.84H60.7111V27.98C60.7111 29.0067 60.5044 29.9333 60.0911 30.76C59.6911 31.6 59.0711 32.2667 58.2311 32.76C57.4044 33.2533 56.3711 33.5 55.1311 33.5C53.4778 33.5 52.1378 33.1067 51.1111 32.32C50.0844 31.5467 49.4978 30.4933 49.3511 29.16H52.7311C52.8378 29.5867 53.0911 29.92 53.4911 30.16C53.8911 30.4133 54.3844 30.54 54.9711 30.54C55.6778 30.54 56.2378 30.3333 56.6511 29.92C57.0778 29.52 57.2911 28.8733 57.2911 27.98V26.4C56.9578 26.92 56.4978 27.3467 55.9111 27.68C55.3244 28 54.6378 28.16 53.8511 28.16C52.9311 28.16 52.0978 27.9267 51.3511 27.46C50.6044 26.98 50.0111 26.3067 49.5711 25.44C49.1444 24.56 48.9311 23.5467 48.9311 22.4C48.9311 21.2533 49.1444 20.2467 49.5711 19.38C50.0111 18.5133 50.6044 17.8467 51.3511 17.38C52.0978 16.9133 52.9311 16.68 53.8511 16.68ZM57.2911 22.42C57.2911 21.5667 57.0511 20.8933 56.5711 20.4C56.1044 19.9067 55.5311 19.66 54.8511 19.66C54.1711 19.66 53.5911 19.9067 53.1111 20.4C52.6444 20.88 52.4111 21.5467 52.4111 22.4C52.4111 23.2533 52.6444 23.9333 53.1111 24.44C53.5911 24.9333 54.1711 25.18 54.8511 25.18C55.5311 25.18 56.1044 24.9333 56.5711 24.44C57.0511 23.9467 57.2911 23.2733 57.2911 22.42ZM64.9053 15.68C64.3053 15.68 63.812 15.5067 63.4253 15.16C63.052 14.8 62.8653 14.36 62.8653 13.84C62.8653 13.3067 63.052 12.8667 63.4253 12.52C63.812 12.16 64.3053 11.98 64.9053 11.98C65.492 11.98 65.972 12.16 66.3453 12.52C66.732 12.8667 66.9253 13.3067 66.9253 13.84C66.9253 14.36 66.732 14.8 66.3453 15.16C65.972 15.5067 65.492 15.68 64.9053 15.68ZM66.6053 16.84V28H63.1853V16.84H66.6053ZM73.6238 28.16C72.6504 28.16 71.7838 27.9933 71.0238 27.66C70.2638 27.3267 69.6638 26.8733 69.2238 26.3C68.7838 25.7133 68.5371 25.06 68.4838 24.34H71.8638C71.9038 24.7267 72.0838 25.04 72.4038 25.28C72.7238 25.52 73.1171 25.64 73.5838 25.64C74.0104 25.64 74.3371 25.56 74.5638 25.4C74.8038 25.2267 74.9238 25.0067 74.9238 24.74C74.9238 24.42 74.7571 24.1867 74.4238 24.04C74.0904 23.88 73.5504 23.7067 72.8038 23.52C72.0038 23.3333 71.3371 23.14 70.8038 22.94C70.2704 22.7267 69.8104 22.4 69.4238 21.96C69.0371 21.5067 68.8438 20.9 68.8438 20.14C68.8438 19.5 69.0171 18.92 69.3638 18.4C69.7238 17.8667 70.2438 17.4467 70.9238 17.14C71.6171 16.8333 72.4371 16.68 73.3838 16.68C74.7838 16.68 75.8838 17.0267 76.6838 17.72C77.4971 18.4133 77.9638 19.3333 78.0838 20.48H74.9238C74.8704 20.0933 74.6971 19.7867 74.4038 19.56C74.1238 19.3333 73.7504 19.22 73.2838 19.22C72.8838 19.22 72.5771 19.3 72.3638 19.46C72.1504 19.6067 72.0438 19.8133 72.0438 20.08C72.0438 20.4 72.2104 20.64 72.5438 20.8C72.8904 20.96 73.4238 21.12 74.1438 21.28C74.9704 21.4933 75.6438 21.7067 76.1638 21.92C76.6838 22.12 77.1371 22.4533 77.5238 22.92C77.9238 23.3733 78.1304 23.9867 78.1438 24.76C78.1438 25.4133 77.9571 26 77.5838 26.52C77.2238 27.0267 76.6971 27.4267 76.0038 27.72C75.3238 28.0133 74.5304 28.16 73.6238 28.16ZM86.4561 25.1V28H84.7161C83.4761 28 82.5094 27.7 81.8161 27.1C81.1228 26.4867 80.7761 25.4933 80.7761 24.12V19.68H79.4161V16.84H80.7761V14.12H84.1961V16.84H86.4361V19.68H84.1961V24.16C84.1961 24.4933 84.2761 24.7333 84.4361 24.88C84.5961 25.0267 84.8628 25.1 85.2361 25.1H86.4561ZM98.8811 22.24C98.8811 22.56 98.8611 22.8933 98.8211 23.24H91.0811C91.1344 23.9333 91.3544 24.4667 91.7411 24.84C92.1411 25.2 92.6278 25.38 93.2011 25.38C94.0544 25.38 94.6478 25.02 94.9811 24.3H98.6211C98.4344 25.0333 98.0944 25.6933 97.6011 26.28C97.1211 26.8667 96.5144 27.3267 95.7811 27.66C95.0478 27.9933 94.2278 28.16 93.3211 28.16C92.2278 28.16 91.2544 27.9267 90.4011 27.46C89.5478 26.9933 88.8811 26.3267 88.4011 25.46C87.9211 24.5933 87.6811 23.58 87.6811 22.42C87.6811 21.26 87.9144 20.2467 88.3811 19.38C88.8611 18.5133 89.5278 17.8467 90.3811 17.38C91.2344 16.9133 92.2144 16.68 93.3211 16.68C94.4011 16.68 95.3611 16.9067 96.2011 17.36C97.0411 17.8133 97.6944 18.46 98.1611 19.3C98.6411 20.14 98.8811 21.12 98.8811 22.24ZM95.3811 21.34C95.3811 20.7533 95.1811 20.2867 94.7811 19.94C94.3811 19.5933 93.8811 19.42 93.2811 19.42C92.7078 19.42 92.2211 19.5867 91.8211 19.92C91.4344 20.2533 91.1944 20.7267 91.1011 21.34H95.3811ZM104.105 18.7C104.505 18.0867 105.005 17.6067 105.605 17.26C106.205 16.9 106.872 16.72 107.605 16.72V20.34H106.665C105.812 20.34 105.172 20.5267 104.745 20.9C104.319 21.26 104.105 21.9 104.105 22.82V28H100.685V16.84H104.105V18.7Z" fill="white"/>
<defs>
<linearGradient id="paint0_linear_2_94" x1="0" y1="42" x2="130" y2="42" gradientUnits="userSpaceOnUse">
<stop stop-color="#00F0FF"/>
<stop offset="0.46875" stop-color="#5773FF"/>
<stop offset="1" stop-color="#FF007A"/>
</linearGradient>
</defs>
</svg>
