<svg width="294" height="73" viewBox="0 0 294 73" fill="none" xmlns="http://www.w3.org/2000/svg">
<rect x="2.25348" y="2.05762" width="290" height="69" rx="34.5" stroke="url(#paint0_linear_2_3959)" stroke-width="3"/>
<path d="M104.758 46.7475C103.365 46.7475 102.117 46.5214 101.014 46.0692C99.9104 45.617 99.0241 44.9477 98.3548 44.0614C97.7036 43.1751 97.36 42.1078 97.3238 40.8597H102.262C102.334 41.5652 102.579 42.1078 102.995 42.4877C103.411 42.8495 103.953 43.0304 104.623 43.0304C105.31 43.0304 105.853 42.8766 106.25 42.5691C106.648 42.2435 106.847 41.8003 106.847 41.2396C106.847 40.7693 106.685 40.3804 106.359 40.0729C106.052 39.7654 105.663 39.5121 105.192 39.3132C104.74 39.1142 104.089 38.8881 103.239 38.6348C102.009 38.255 101.005 37.8751 100.227 37.4953C99.4492 37.1154 98.7799 36.5547 98.2192 35.813C97.6584 35.0714 97.3781 34.1037 97.3781 32.9098C97.3781 31.1371 98.0202 29.7534 99.3045 28.7585C100.589 27.7455 102.262 27.2391 104.324 27.2391C106.422 27.2391 108.114 27.7455 109.398 28.7585C110.682 29.7534 111.37 31.1462 111.46 32.937H106.44C106.404 32.3219 106.178 31.8426 105.762 31.4989C105.346 31.1371 104.812 30.9563 104.161 30.9563C103.601 30.9563 103.148 31.11 102.805 31.4175C102.461 31.7069 102.289 32.132 102.289 32.6928C102.289 33.3078 102.579 33.7871 103.157 34.1308C103.736 34.4745 104.641 34.8453 105.871 35.2432C107.101 35.6593 108.096 36.0572 108.855 36.4371C109.633 36.8169 110.302 37.3686 110.863 38.0922C111.424 38.8157 111.704 39.7473 111.704 40.8869C111.704 41.9722 111.424 42.958 110.863 43.8443C110.32 44.7307 109.524 45.4361 108.475 45.9607C107.426 46.4853 106.187 46.7475 104.758 46.7475ZM129.51 31.4175V46.5576H124.87V44.4955C124.4 45.1648 123.757 45.7075 122.943 46.1235C122.148 46.5214 121.261 46.7204 120.284 46.7204C119.127 46.7204 118.105 46.4672 117.218 45.9607C116.332 45.4361 115.645 44.6855 115.156 43.7087C114.668 42.7319 114.424 41.5833 114.424 40.2628V31.4175H119.036V39.6388C119.036 40.6517 119.299 41.4386 119.823 41.9993C120.348 42.5601 121.053 42.8404 121.94 42.8404C122.844 42.8404 123.559 42.5601 124.083 41.9993C124.608 41.4386 124.87 40.6517 124.87 39.6388V31.4175H129.51ZM137.482 33.561C137.916 32.8556 138.54 32.2858 139.354 31.8516C140.168 31.4175 141.1 31.2005 142.149 31.2005C143.397 31.2005 144.527 31.517 145.54 32.1501C146.553 32.7832 147.349 33.6876 147.928 34.8634C148.525 36.0391 148.824 37.4048 148.824 38.9604C148.824 40.516 148.525 41.8908 147.928 43.0846C147.349 44.2604 146.553 45.1738 145.54 45.825C144.527 46.4581 143.397 46.7747 142.149 46.7747C141.082 46.7747 140.15 46.5667 139.354 46.1506C138.558 45.7165 137.934 45.1467 137.482 44.4413V46.5576H132.842V26.4794H137.482V33.561ZM144.102 38.9604C144.102 37.8028 143.777 36.8983 143.126 36.2472C142.493 35.5779 141.706 35.2432 140.765 35.2432C139.843 35.2432 139.056 35.5779 138.405 36.2472C137.771 36.9164 137.455 37.8299 137.455 38.9876C137.455 40.1452 137.771 41.0587 138.405 41.728C139.056 42.3973 139.843 42.7319 140.765 42.7319C141.688 42.7319 142.474 42.3973 143.126 41.728C143.777 41.0406 144.102 40.1181 144.102 38.9604ZM170.576 31.2547C172.457 31.2547 173.95 31.8245 175.053 32.9641C176.175 34.1037 176.735 35.6864 176.735 37.7123V46.5576H172.123V38.3364C172.123 37.3596 171.86 36.6089 171.336 36.0844C170.829 35.5417 170.124 35.2704 169.22 35.2704C168.315 35.2704 167.601 35.5417 167.076 36.0844C166.57 36.6089 166.316 37.3596 166.316 38.3364V46.5576H161.704V38.3364C161.704 37.3596 161.441 36.6089 160.917 36.0844C160.41 35.5417 159.705 35.2704 158.801 35.2704C157.896 35.2704 157.182 35.5417 156.657 36.0844C156.151 36.6089 155.897 37.3596 155.897 38.3364V46.5576H151.258V31.4175H155.897V33.3168C156.368 32.6837 156.983 32.1863 157.742 31.8245C158.502 31.4447 159.361 31.2547 160.32 31.2547C161.46 31.2547 162.473 31.4989 163.359 31.9873C164.263 32.4757 164.969 33.1721 165.475 34.0765C166 33.2445 166.714 32.5661 167.619 32.0416C168.523 31.517 169.509 31.2547 170.576 31.2547ZM182.314 29.8438C181.5 29.8438 180.83 29.6087 180.306 29.1384C179.799 28.65 179.546 28.0531 179.546 27.3476C179.546 26.6241 179.799 26.0271 180.306 25.5568C180.83 25.0684 181.5 24.8242 182.314 24.8242C183.11 24.8242 183.761 25.0684 184.267 25.5568C184.792 26.0271 185.054 26.6241 185.054 27.3476C185.054 28.0531 184.792 28.65 184.267 29.1384C183.761 29.6087 183.11 29.8438 182.314 29.8438ZM184.62 31.4175V46.5576H179.98V31.4175H184.62ZM196.421 42.6234V46.5576H194.06C192.378 46.5576 191.066 46.1506 190.126 45.3366C189.185 44.5046 188.715 43.157 188.715 41.2939V35.2704H186.87V31.4175H188.715V27.7275H193.355V31.4175H196.393V35.2704H193.355V41.3481C193.355 41.8003 193.463 42.1259 193.68 42.3249C193.897 42.5239 194.259 42.6234 194.765 42.6234H196.421Z" fill="white"/>
<defs>
<linearGradient id="paint0_linear_2_3959" x1="0.753479" y1="72.5577" x2="293.753" y2="72.5577" gradientUnits="userSpaceOnUse">
<stop stop-color="#00F0FF"/>
<stop offset="0.46875" stop-color="#5773FF"/>
<stop offset="1" stop-color="#FF007A"/>
</linearGradient>
</defs>
</svg>
